<?xml version="1.0" encoding="UTF-8"?>
<svg id="b" data-name="Слой 2" xmlns="http://www.w3.org/2000/svg" width="244.84" height="33.57" viewBox="0 0 244.84 33.57">
  <defs>
    <style>
      .d {
        fill: #fff;
      }

      .e {
        isolation: isolate;
      }

      .f {
        fill: #d00811;
      }
    </style>
  </defs>
  <g id="c" data-name=" Слой 1">
    <g class="e">
      <path class="f" d="m13.26,18.04c-.5-.55-.76-1.18-.76-1.84,0-.17.02-.34.05-.49.11-.53-.47-1.06-1.37-1.28l-4.94-1.21c-.96-.24-2.04.17-2.25.84-.23.7-.35,1.42-.35,2.14,0,2.24,1.13,4.43,3.18,6.14.32.27.8.43,1.3.43.47,0,.93-.13,1.26-.37l3.7-2.58c.65-.45.73-1.19.18-1.78h0Zm-1.04,1.19l-3.7,2.58c-.11.08-.26.12-.41.12-.09,0-.24-.01-.37-.12-1.87-1.57-2.89-3.55-2.89-5.61,0-.66.1-1.32.31-1.95.06-.18.29-.26.48-.26.07,0,.13,0,.19.02l4.94,1.21c.43.1.58.31.57.36-.04.2-.06.4-.06.62,0,.82.33,1.6.95,2.29.2.21.26.54-.02.73h0Zm10.34.03c-.62-.45-1.72-.52-2.54-.15-.98.44-2.17.62-3.3.5h-.16c-.68,0-1.35.39-1.65.96l-1.77,3.44c-.17.34-.13.7.1,1,.23.29.62.49,1.08.57,1,.16,2.03.24,3.07.24,3.14,0,6.2-.75,8.64-2.13.37-.21.59-.5.62-.84.03-.35-.15-.7-.49-.94l-3.6-2.65h0Zm2.71,3.77c-2.95,1.67-6.99,2.31-10.67,1.73-.16-.02-.25-.1-.29-.16-.07-.09-.09-.2-.03-.31l1.77-3.44c.15-.28.42-.41.5-.41,1.39.13,2.9-.08,4.12-.63.29-.12.66-.24,1.01.02l3.6,2.65c.11.09.17.2.16.31,0,.07-.04.17-.18.25Zm.16-12.99l-3.59,2.67c-.62.46-.69,1.19-.2,1.79.42.52.65,1.11.65,1.72,0,.17-.02.33-.05.49-.1.52.47,1.05,1.37,1.28l4.94,1.22c.19.04.4.07.6.07.8,0,1.48-.37,1.65-.91.23-.71.35-1.42.35-2.15,0-2.24-1.13-4.43-3.18-6.14-.62-.53-1.86-.54-2.55-.03h0Zm4.2,8.13c-.08.24-.42.29-.68.22l-4.94-1.22c-.42-.1-.59-.31-.57-.36.04-.2.06-.4.06-.62,0-.75-.29-1.49-.81-2.13-.23-.27-.21-.62.03-.8l3.59-2.67c.1-.08.25-.12.39-.12.1,0,.23.02.35.11,1.87,1.57,2.89,3.55,2.89,5.61,0,.66-.1,1.32-.31,1.96h0Zm-17.22-5.09c.36.25.85.38,1.39.38.41,0,.81-.08,1.17-.22.96-.39,2.14-.53,3.21-.41h.21c.72.01,1.4-.38,1.68-.94l1.71-3.45c.16-.34.12-.7-.12-1-.23-.29-.62-.49-1.08-.57-4.05-.66-8.5.02-11.76,1.85-.37.21-.6.5-.62.84-.03.35.16.68.52.93l3.7,2.59h0Zm-2.84-3.67c2.24-1.26,4.96-1.92,7.84-1.92.97,0,1.94.08,2.88.24.16.02.25.1.3.16.08.09.09.21.03.31l-1.71,3.45c-.13.26-.4.38-.56.38h0c-1.33-.15-2.79.03-3.99.52-.3.12-.73.22-1.1-.03l-3.7-2.59c-.11-.08-.17-.19-.16-.29,0-.07.03-.16.17-.24h0ZM71.16,1.85c-2.95-1.22-6.29-1.85-9.89-1.85-4.29,0-11.27.91-20.19,5.24l-.22.1c-1.12.54-4.59,1.74-9.62,3.3-.13,0-.27-.04-.33-.1-3.33-2.86-8.25-4.5-13.51-4.5C7.81,4.04,0,9.5,0,16.21s7.81,12.17,17.42,12.17c5.07,0,9.88-1.55,13.19-4.24.23-.19.78-.39,1.07-.39.89-.02,2.06-.03,3.41-.03,5.05,0,14.34.22,19.75,1.7,6.55,1.79,12.68,5.98,15.01,7.69.42.31.88.46,1.36.46.75,0,1.54-.39,1.54-1.27V3.87c0-.77-.69-1.65-1.61-2.03h0Zm-.85,29.2c-3.01-2.09-8.6-5.56-14.62-7.2-5.49-1.5-14.25-1.82-20.63-1.82-1.38,0-2.57.01-3.48.03-.97.02-2.17.44-2.84.99-2.86,2.32-7,3.65-11.36,3.65-8.27,0-15-4.7-15-10.48s6.72-10.49,15-10.49c4.53,0,8.77,1.41,11.64,3.87.76.65,2.19.9,3.27.56,2.98-.94,8.24-2.63,9.92-3.44l.23-.11c8.39-4.07,14.87-4.93,18.81-4.93,3.17,0,6.08.54,8.66,1.61.18.07.42.38.42.57v27.18ZM17.19,14.39c1.39,0,2.52.78,2.52,1.76s-1.13,1.76-2.52,1.76-2.52-.78-2.52-1.76,1.13-1.76,2.52-1.76Zm48.23-8.15h.44v-3.03h-.47c-1.19.02-2.43.1-3.7.24l-.39.04v3.03l.53-.06c1.22-.13,2.43-.21,3.58-.22h0Zm-3.2-2.2c.93-.09,1.85-.16,2.73-.18v1.75c-.89.02-1.8.08-2.73.17v-1.74h0Zm-2.9,2.58l.36-.06v-2.98l-.55.08c-1.14.17-2.33.39-3.51.66l-.31.07v3l.59-.13c1.16-.26,2.31-.48,3.43-.65h0Zm-3.2-1.77c.88-.19,1.77-.36,2.64-.5v1.75c-.87.13-1.75.3-2.63.49v-1.73h0Zm-2.57,2.7l.29-.08v-3.04l-.62.16c-1.15.3-2.33.65-3.49,1.02l-.26.09v3.06l.65-.21c1.14-.37,2.3-.71,3.42-1.01h0Zm-3.16-1.43c.85-.27,1.7-.53,2.55-.75v1.68c-.84.22-1.7.47-2.55.74v-1.67Zm-1.79,2.88l.24-.09v-3.09l-.66.24c-1,.36-1.98.74-2.93,1.13l-.23.09v3.12l.68-.28c.94-.38,1.91-.76,2.88-1.11Zm-2.67-1.37c.66-.27,1.33-.53,2-.77v1.66c-.68.25-1.34.49-2,.76v-1.65Zm-3.15,3.48c.37-.18.77-.36,1.21-.55l.21-.09v-3.11l-.69.3c-.44.19-.86.38-1.24.56-.42.2-.82.38-1.22.55l-.22.09v3.11l.69-.29c.4-.17.82-.36,1.26-.57Zm-1.03-1.88c.34-.15.68-.3,1.03-.47.16-.08.34-.16.51-.24v1.6c-.36.16-.7.31-1.01.47-.18.09-.36.17-.53.25v-1.6h0Zm-1.87,2.96l.23-.09v-3.11l-.68.26c-.81.31-1.63.59-2.41.83l-.28.08v3.07l.63-.19c.81-.24,1.65-.53,2.5-.85Zm-2.22-1.61c.51-.16,1.02-.33,1.54-.52v1.66c-.52.2-1.04.38-1.54.54v-1.68Zm-1.94,2.86l.3-.07v-3.03l-.6.13c-1.42.34-2.26.39-2.27.39l-.42.02v2.99l.49-.03s.94-.06,2.48-.43h0Zm-2.06-1.96c.31-.03.81-.11,1.46-.25v1.68c-.63.13-1.13.22-1.46.27,0,0,0-1.7,0-1.7Zm33.76,12.43l-.51-.27-1.15,2.58.27.13c1.59.78,2.54,1.36,2.55,1.36l.75.44v-3.22l-.16-.09s-.65-.38-1.74-.94h0Zm.99,2.93c-.39-.21-.94-.5-1.59-.84l.58-1.3c.49.26.83.45,1.01.56v1.57h0Zm-2.7-3.6c-2.04-1.05-2.64-1.31-3.27-1.57l-.46-.19-1.35,2.53.34.13c.68.27,1.33.54,3.43,1.61l.54.27,1.02-2.67-.25-.12h0Zm-1.31,1.75c-1.43-.73-2.1-1.03-2.65-1.26l.7-1.31c.43.19,1.09.49,2.48,1.21l-.52,1.37h0Zm-3.71-3.78c-.71-.27-1.46-.54-2.24-.81l-.51-.17-.86,2.7.32.11c.68.22,1.33.46,1.97.7l.49.18,1.17-2.59s-.33-.12-.33-.12Zm-1.38,1.8c-.39-.15-.79-.28-1.2-.43l.45-1.43c.47.16.92.33,1.36.49l-.62,1.37Zm-2.44-3.16c-.7-.22-1.43-.43-2.17-.63l-.49-.12-.9,2.68.37.1c.69.18,1.39.38,2.05.59l.49.16.98-2.66-.35-.11h0Zm-1.24,1.87c-.41-.12-.82-.25-1.25-.36l.49-1.43c.43.12.86.25,1.28.37l-.52,1.41h0Zm-5.76-3.27l-.48-.03-.27,2.75.42.03c.95.08,1.79.18,2.5.29l.47.08.68-2.71-.42-.07c-.81-.13-1.8-.24-2.91-.34h0Zm1.92,2.35c-.52-.07-1.08-.13-1.7-.2l.15-1.48c.71.07,1.35.13,1.92.21l-.36,1.47h0Zm-6.19-2.59h-.49l.07,2.74.42.02c.79.03,1.58.07,2.32.12l.45.03.37-2.74-.45-.02c-.93-.06-1.72-.1-2.69-.13v-.02Zm1.96,2.21c-.49-.03-.99-.06-1.49-.08l-.03-1.48c.61.02,1.14.06,1.72.09l-.2,1.47Zm-3.61-2.23c-.97-.02-1.95-.03-2.89-.04h-.49l.2,2.74h.42c.97.01,1.81.03,2.8.06h.49l-.1-2.74h-.42Zm-2.31,2.03l-.1-1.46c.65,0,1.3.01,1.96.03l.06,1.47c-.66-.02-1.26-.03-1.91-.03h0Zm-2.16-2.1c-.79,0-1.47.01-2.13.03l-1.4.02-.29,2.7h.5c.89-.02,1.88-.02,2.93-.02h1.02l-.2-2.79-.42.07h0,0Zm-.42,2.09c-.86,0-1.67,0-2.43.01l.16-1.42h.58c.52-.02,1.07-.03,1.66-.03l.1,1.46h-.08,0Zm-6.72-2.01h-.36l-.68,2.74.56-.02s1.06-.03,2.71-.07h.39l.49-2.72h-.53c-1.59.04-2.59.08-2.59.08Zm1.83,2.03c-.76.01-1.37.03-1.78.04l.36-1.45c.35-.01.93-.02,1.68-.04l-.26,1.45Zm15.26-7.23c.2-.01.39-.01.55,0,.3.02.58-.09.63-.29s-.23-.44-.62-.45c-.21,0-.45,0-.72.01-1.72.12-2.99.96-2.79,2.32.16,1.13,1.3,1.92,3.26,1.77.27-.02.52-.06.73-.09.4-.07.62-.34.55-.53s-.36-.27-.66-.21c-.17.03-.36.06-.55.07-1.13.08-1.88-.37-1.99-1.17-.13-.89.6-1.37,1.61-1.43Zm3.57-.01c-.03-.47-.36-.83-.71-.82-.36.01-.61.4-.57.87l.2,2.29c.03.46.36.83.71.82s.62-.4.57-.87l-.19-2.29h0Zm5.37,3.08c.37,0,.68-.38.68-.84v-2.3c0-.47-.26-.85-.59-.85s-.6.26-.6.58v.57c0,.29,0,.57.02.84.02.46-.11.52-.37.15-.16-.24-.32-.46-.49-.67l-.59-.73c-.33-.4-.93-.73-1.34-.73s-.75.38-.75.84v2.3c0,.47.26.85.58.85s.6-.27.6-.61v-1.5c0-.47.17-.52.45-.13.17.25.36.48.52.7l.63.81c.33.41.89.74,1.26.74h0Zm4.53-2.98c.61.06,1.13-.07,1.17-.27.03-.2-.48-.41-1.13-.47l-1.08-.09c-.67-.06-1.26.27-1.34.74l-.4,2.28c-.08.46.39.89,1.06.94l1.2.1c.66.06,1.22-.06,1.26-.26.03-.2-.46-.41-1.1-.47s-1.13-.31-1.07-.57c.04-.26.55-.43,1.12-.38s1.07-.08,1.11-.28c.03-.2-.41-.4-.98-.45-.57-.04-1-.27-.97-.49s.56-.37,1.17-.31h0Z"/>
      <g>
        <path class="d" d="m114.77,30.07l-.34.09c-2.38.59-4.89.88-7.51.88s-5.19-.39-7.55-1.17c-2.61-.86-4.66-2.08-6.17-3.66-.11,0-.29,0-.54.01s-.43.01-.54.01c-3.39,0-6.21-.89-8.46-2.67-2.31-1.82-3.47-4.18-3.47-7.09s1.17-5.14,3.5-7.06c2.31-1.87,5.12-2.81,8.42-2.81s6.18.92,8.42,2.75c2.27,1.84,3.4,4.18,3.4,7.03,0,2.03-.67,3.88-2.02,5.54-1.3,1.6-3.02,2.77-5.15,3.51,2.31,3.1,8.31,4.65,17.99,4.63Zm-14.15-13.18c0-2.77-.88-4.97-2.63-6.59-1.66-1.54-3.87-2.31-6.64-2.31-2.27,0-4.14.73-5.61,2.2-1.47,1.46-2.21,3.37-2.21,5.71,0,2.81.85,5.03,2.56,6.65,1.66,1.56,3.91,2.34,6.74,2.34,2.29,0,4.16-.74,5.61-2.21,1.45-1.47,2.17-3.4,2.17-5.78Z"/>
        <path class="d" d="m116.69,9.81l3.2-.03v.03c-.7.1-1.04.6-1.04,1.49v4.74c.11,1.52-.28,2.68-1.18,3.49-.92.82-2.26,1.23-4.01,1.23-3.68,0-5.53-1.5-5.53-4.51v-4.95c0-.9-.36-1.4-1.08-1.49v-.03h3.84c-.34.06-.6.23-.77.51-.18.28-.28.75-.3,1.39v4.28c0,1.41.33,2.43.98,3.06.65.63,1.72.95,3.2.95,2.54,0,3.81-1.26,3.81-3.78l-.03-4.89c0-.88-.36-1.38-1.08-1.49Z"/>
        <path class="d" d="m126.15,9.87c-.34.04-.62.14-.84.29-.23.16-.43.36-.61.62v8.4c0,.31.09.58.27.79.29.33.67.56,1.15.67l.03.03s-.2.06-.47.06c-1.66-.06-2.94-.06-3.84,0-.2,0-.34-.03-.4-.09.45-.02.82-.15,1.11-.4.29-.24.46-.53.51-.86v-8.11c0-.2-.06-.39-.17-.59-.11-.21-.25-.4-.42-.57s-.35-.25-.56-.25c.07-.02.79-.03,2.16-.03s2.07,0,2.09.03Z"/>
        <path class="d" d="m139.23,17.45s.07.31.07.82-.03.94-.1,1.35c-.02.02-.03.04-.03.06s-.01.04-.03.06l-.1.09c-.18.16-.54.32-1.08.5-.94.27-2.05.41-3.33.41-1.91,0-3.52-.53-4.82-1.58-1.3-1.05-1.98-2.39-2.02-4.01.02-1.58.7-2.92,2.02-4.01,1.3-1.07,2.91-1.61,4.82-1.61,1.3,0,2.41.15,3.33.44.54.18.9.34,1.08.5l.1.09s.03.04.03.06.01.04.03.06c.07.41.1.87.1,1.38s-.02.75-.07.79h-.07c-.04-.25-.26-.6-.66-1.05-.39-.45-1.05-.85-1.97-1.2-.54-.21-1.2-.32-1.99-.32-1.39,0-2.53.41-3.4,1.23-.94.86-1.42,2.05-1.42,3.57v.18c0,1.54.47,2.73,1.42,3.57.88.8,2.01,1.2,3.4,1.2.85,0,1.52-.1,1.99-.29.92-.35,1.58-.75,1.97-1.19.39-.44.61-.79.66-1.07h.07Z"/>
        <path class="d" d="m145.02,15.4v3.69c0,.31.09.58.27.79.29.35.67.57,1.15.64l.03.03c-.04.08-.2.1-.47.06-1.66-.02-2.94-.02-3.84,0-.2.04-.34.01-.4-.09.45-.02.82-.15,1.11-.4.29-.24.46-.52.51-.83-.04-5.51-.11-8.35-.2-8.52-.11-.21-.25-.4-.42-.57-.17-.17-.35-.25-.56-.25.07-.02.79-.03,2.16-.03s2.07,0,2.09.03c-.34.04-.62.14-.84.29-.22.16-.43.36-.61.62l.03,4.01c.88-.64,1.72-1.26,2.54-1.86.82-.6,1.61-1.18,2.38-1.74.29-.23.48-.42.56-.57.08-.15.08-.27.02-.38-.07-.11-.2-.19-.4-.26s-.44-.13-.71-.19l.94.06,3-.06-2.19,1.41h.03c-.11.08-.26.18-.44.29s-.39.25-.64.41c-.45.33-1.73,1.27-3.84,2.81.47.39,1.12.97,1.94,1.73.82.76,1.81,1.71,2.98,2.84.34.39.7.69,1.08.89.38.21.73.33,1.04.37l-2.8-.03-5.49-5.18Z"/>
        <path class="d" d="m176.42,20.47c.09.06.13.53.13,1.41s-.06,1.68-.17,2.4c-.02.06-.06.13-.1.21l-.17.15c-.34.27-.98.56-1.92.85-1.57.49-3.53.73-5.86.73-3.28,0-6.08-.93-8.39-2.78-2.36-1.85-3.56-4.19-3.61-7v-.03c.04-2.79,1.25-5.12,3.61-7,2.31-1.85,5.11-2.78,8.39-2.78,2.34,0,4.29.24,5.86.73.94.29,1.58.58,1.92.85l.17.15c.04.08.08.15.1.21.11.72.17,1.52.17,2.4s-.04,1.35-.13,1.41h-.07c-.04-.23-.16-.52-.34-.85-.18-.33-.46-.67-.83-1.02-.37-.35-.84-.71-1.4-1.07-.56-.36-1.25-.7-2.05-1.01-.9-.35-2.07-.53-3.5-.53-2.43,0-4.41.7-5.96,2.11-1.66,1.52-2.49,3.61-2.49,6.27v.32c0,2.66.83,4.74,2.49,6.27,1.55,1.41,3.54,2.11,5.96,2.11,1.44,0,2.6-.18,3.5-.53.81-.31,1.49-.65,2.05-1.01s1.03-.72,1.4-1.07c.37-.35.65-.69.83-1.02s.29-.62.34-.85h.07Z"/>
        <path class="d" d="m184.64,9.87c-.34.04-.62.14-.84.29-.22.16-.43.36-.61.62v8.4c0,.31.09.58.27.79.29.33.67.56,1.15.67l.03.03s-.2.06-.47.06c-1.66-.06-2.94-.06-3.84,0-.2,0-.34-.03-.4-.09.45-.02.82-.15,1.11-.4.29-.24.46-.53.51-.86v-8.11c0-.2-.06-.39-.17-.59-.11-.21-.25-.4-.42-.57-.17-.17-.35-.25-.56-.25.07-.02.79-.03,2.16-.03s2.07,0,2.09.03Z"/>
        <path class="d" d="m198.55,11.33l.03,5.94c0,.63,0,1.18.02,1.67.01.49.03.93.05,1.32,0,.2-.04.33-.13.41h-.2c-.58-.51-1.68-1.43-3.3-2.77-1.62-1.34-3.76-3.09-6.43-5.26l-.03,5.1v1.26c0,.9.35,1.4,1.04,1.49v.03h-3.2v-.03c.72-.1,1.08-.59,1.08-1.49v-1.46l.07-6.15v-.95c0-.26-.01-.48-.03-.66h.03l9.64,7.64c.11.1.19.15.24.15s.07-.07.07-.21v-6.03c0-.88-.36-1.38-1.08-1.49h3.2c-.7.12-1.04.61-1.04,1.49Z"/>
        <path class="d" d="m210.48,20.76c-.07.02-.2.03-.4.03-.99-.06-2.24-.09-3.74-.09h-1.94c-.73,0-1.57.01-2.51.03.72-.1,1.08-.59,1.08-1.49v-7.64c0-.9-.36-1.4-1.08-1.49v-.03h3.5c.49,0,.96,0,1.4-.01.44,0,.86-.02,1.26-.04h.13c.29,0,.57,0,.83-.01.26,0,.51-.02.76-.04.4-.02.61,0,.61.09v1.7c-.04-.31-.28-.54-.69-.67-.42-.14-1.22-.24-2.41-.32-.27-.02-.59-.03-.96-.03h-1.26c-.2,0-.34.03-.4.09-.02.02-.03.11-.03.26v3.43c0,.12.09.18.27.18h1.13c.59,0,1.42,0,2.48.03.52,0,.89-.1,1.13-.31.24-.21.38-.44.42-.72h.03c-.02.43-.02,1.33,0,2.69-.13-.62-.71-.94-1.72-.94-.4-.02-.9-.03-1.5-.04-.6,0-1.29-.01-2.07-.01-.11,0-.17.04-.17.12v3.57c0,.51.34.82,1.01.94.11.02.7.03,1.75.03.47,0,.88-.04,1.21-.12.79-.18,1.36-.38,1.72-.62s.59-.49.71-.76l-.37,2.14-.03.12-.13-.03Z"/>
        <path class="d" d="m215.84,13.73l.03,4.22v1.26c0,.9.34,1.4,1.01,1.49h-3.2v-.03c.72-.1,1.08-.59,1.08-1.46v-1.46l.07-6.15v-.95c0-.26-.01-.48-.03-.66h.03l6.7,8.38c.43-.51,1.21-1.45,2.34-2.84,1.13-1.39,2.64-3.2,4.53-5.45v9.11c0,.88.35,1.37,1.04,1.46v.03l-1.65-.03h-1.16c-.3,0-.62.01-.96.03.72-.12,1.08-.62,1.08-1.49l-.1-5.68-5.66,7.17c-.47-.64-2.19-2.96-5.15-6.94Z"/>
        <path class="d" d="m233.46,20.67h-2.33v-.03c.29-.04.52-.16.69-.37.17-.21.34-.41.52-.63.2-.21.64-.96,1.31-2.23.36-.66.67-1.24.93-1.74.26-.5.48-.93.66-1.3.94-1.99,1.75-3.78,2.43-5.36.85,1.78,1.7,3.51,2.54,5.2.84,1.69,1.69,3.34,2.54,4.96.2.45.45.8.74,1.04.29.25.61.39.94.42v.06h-2.96c-.29-.62-.54-1.18-.76-1.67-.21-.49-.4-.91-.56-1.26h-5.49l-1.21,2.9Zm6.33-3.66s-.23-.47-.62-1.3c-.39-.83-.98-2.06-1.77-3.7l-2.43,5.12h4.89l-.07-.12Z"/>
      </g>
    </g>
  </g>
</svg>